<svg width="1200" height="800" viewBox="0 0 1200 800" fill="none" xmlns="http://www.w3.org/2000/svg">
  <rect width="1200" height="800" fill="#233148"/>
  <rect y="450" width="1200" height="350" fill="#39556A"/>
  <rect y="600" width="1200" height="200" fill="#4D704B"/>
  <rect x="0" y="520" width="1200" height="70" fill="#C8B68C"/>
  <rect x="160" y="140" width="80" height="310" fill="#1B2433"/>
  <rect x="200" y="80" width="140" height="90" fill="#1B2433"/>
  <rect x="400" y="180" width="90" height="270" fill="#1B2433"/>
  <rect x="445" y="120" width="155" height="80" fill="#1B2433"/>
  <rect x="750" y="150" width="90" height="300" fill="#1B2433"/>
  <rect x="795" y="90" width="160" height="85" fill="#1B2433"/>
  <rect x="1040" y="170" width="80" height="280" fill="#1B2433"/>
  <rect x="1080" y="115" width="120" height="70" fill="#1B2433"/>
  <rect x="150" y="470" width="26" height="50" fill="#F4E7CB"/>
  <rect x="432" y="470" width="26" height="50" fill="#F4E7CB"/>
  <rect x="787" y="470" width="26" height="50" fill="#F4E7CB"/>
  <rect x="1060" y="470" width="26" height="50" fill="#F4E7CB"/>
  <rect x="900" y="70" width="85" height="85" fill="#F4E3A1"/>
</svg>
