<svg width="1200" height="800" viewBox="0 0 1200 800" fill="none" xmlns="http://www.w3.org/2000/svg">
  <rect width="1200" height="800" fill="#20314B"/>
  <rect y="470" width="1200" height="330" fill="#DDE7F0"/>
  <rect x="90" y="220" width="310" height="270" fill="#7A4D53"/>
  <rect x="130" y="260" width="230" height="190" fill="#F5EBD8"/>
  <rect x="480" y="170" width="540" height="320" fill="#3A4661"/>
  <rect x="530" y="220" width="440" height="230" fill="#5D6F8E"/>
  <rect x="0" y="520" width="1200" height="70" fill="#B8AA8D"/>
  <rect x="180" y="510" width="820" height="20" fill="#F6E7C8"/>
  <rect x="170" y="590" width="860" height="25" fill="#9EB0C4"/>
  <rect x="110" y="120" width="110" height="110" fill="#F4E3A1"/>
  <rect x="180" y="305" width="24" height="24" fill="#F4E3A1"/>
  <rect x="260" y="305" width="24" height="24" fill="#F4E3A1"/>
  <rect x="610" y="280" width="26" height="26" fill="#F4E3A1"/>
  <rect x="710" y="280" width="26" height="26" fill="#F4E3A1"/>
  <rect x="810" y="280" width="26" height="26" fill="#F4E3A1"/>
  <rect x="910" y="280" width="26" height="26" fill="#F4E3A1"/>
</svg>
